<mxfile host="65bd71144e">
    <diagram id="cuI6JHuvrPcbARN28x8t" name="Topologie-RÃ©seau">
        <mxGraphModel dx="1127" dy="819" grid="0" gridSize="10" guides="1" tooltips="1" connect="1" arrows="1" fold="1" page="0" pageScale="1" pageWidth="850" pageHeight="1100" math="0" shadow="0">
            <root>
                <mxCell id="0"/>
                <mxCell id="1" parent="0"/>
                <mxCell id="2" value="" style="shape=mxgraph.cisco.routers.router;sketch=0;html=1;pointerEvents=1;dashed=0;fillColor=#036897;strokeColor=#ffffff;strokeWidth=2;verticalLabelPosition=bottom;verticalAlign=top;align=center;outlineConnect=0;" vertex="1" parent="1">
                    <mxGeometry x="254" y="73" width="78" height="53" as="geometry"/>
                </mxCell>
                <mxCell id="5" value="" style="shape=mxgraph.cisco.switches.workgroup_switch;sketch=0;html=1;pointerEvents=1;dashed=0;fillColor=#036897;strokeColor=#ffffff;strokeWidth=2;verticalLabelPosition=bottom;verticalAlign=top;align=center;outlineConnect=0;" vertex="1" parent="1">
                    <mxGeometry x="572" y="291" width="94" height="45" as="geometry"/>
                </mxCell>
                <mxCell id="6" value="" style="shape=mxgraph.cisco.switches.workgroup_switch;sketch=0;html=1;pointerEvents=1;dashed=0;fillColor=#036897;strokeColor=#ffffff;strokeWidth=2;verticalLabelPosition=bottom;verticalAlign=top;align=center;outlineConnect=0;" vertex="1" parent="1">
                    <mxGeometry x="247" y="221" width="92" height="46" as="geometry"/>
                </mxCell>
                <mxCell id="7" value="" style="shape=mxgraph.cisco.servers.standard_host;sketch=0;html=1;pointerEvents=1;dashed=0;fillColor=#036897;strokeColor=#ffffff;strokeWidth=2;verticalLabelPosition=bottom;verticalAlign=top;align=center;outlineConnect=0;" vertex="1" parent="1">
                    <mxGeometry x="-5" y="81" width="43" height="62" as="geometry"/>
                </mxCell>
                <mxCell id="8" value="" style="shape=mxgraph.cisco.servers.standard_host;sketch=0;html=1;pointerEvents=1;dashed=0;fillColor=#036897;strokeColor=#ffffff;strokeWidth=2;verticalLabelPosition=bottom;verticalAlign=top;align=center;outlineConnect=0;" vertex="1" parent="1">
                    <mxGeometry x="-10" y="330" width="43" height="62" as="geometry"/>
                </mxCell>
                <mxCell id="9" value="" style="shape=mxgraph.cisco.servers.standard_host;sketch=0;html=1;pointerEvents=1;dashed=0;fillColor=#036897;strokeColor=#ffffff;strokeWidth=2;verticalLabelPosition=bottom;verticalAlign=top;align=center;outlineConnect=0;" vertex="1" parent="1">
                    <mxGeometry x="-5" y="213" width="43" height="62" as="geometry"/>
                </mxCell>
                <mxCell id="12" value="" style="endArrow=none;html=1;" edge="1" parent="1" source="7" target="6">
                    <mxGeometry width="50" height="50" relative="1" as="geometry">
                        <mxPoint x="344" y="244" as="sourcePoint"/>
                        <mxPoint x="394" y="196" as="targetPoint"/>
                    </mxGeometry>
                </mxCell>
                <mxCell id="13" value="" style="endArrow=none;html=1;" edge="1" parent="1" source="9" target="6">
                    <mxGeometry width="50" height="50" relative="1" as="geometry">
                        <mxPoint x="108" y="144.92857142857144" as="sourcePoint"/>
                        <mxPoint x="184" y="267" as="targetPoint"/>
                    </mxGeometry>
                </mxCell>
                <mxCell id="15" value="" style="endArrow=none;html=1;" edge="1" parent="1" source="19" target="2">
                    <mxGeometry width="50" height="50" relative="1" as="geometry">
                        <mxPoint x="303" y="3" as="sourcePoint"/>
                        <mxPoint x="225.0717488789237" y="259" as="targetPoint"/>
                    </mxGeometry>
                </mxCell>
                <mxCell id="16" value="" style="endArrow=none;html=1;entryX=0.391;entryY=1.087;entryDx=0;entryDy=0;entryPerimeter=0;" edge="1" parent="1" source="8" target="6">
                    <mxGeometry width="50" height="50" relative="1" as="geometry">
                        <mxPoint x="-1" y="267.41864139020527" as="sourcePoint"/>
                        <mxPoint x="248" y="237.52290679304906" as="targetPoint"/>
                    </mxGeometry>
                </mxCell>
                <mxCell id="17" value="" style="shape=mxgraph.cisco.security.router_firewall;sketch=0;html=1;pointerEvents=1;dashed=0;fillColor=#036897;strokeColor=#ffffff;strokeWidth=2;verticalLabelPosition=bottom;verticalAlign=top;align=center;outlineConnect=0;" vertex="1" parent="1">
                    <mxGeometry x="445" y="199" width="78" height="62" as="geometry"/>
                </mxCell>
                <mxCell id="19" value="" style="shape=mxgraph.cisco.storage.cloud;sketch=0;html=1;pointerEvents=1;dashed=0;fillColor=#036897;strokeColor=#ffffff;strokeWidth=2;verticalLabelPosition=bottom;verticalAlign=top;align=center;outlineConnect=0;" vertex="1" parent="1">
                    <mxGeometry x="233.5" y="-80" width="119" height="59" as="geometry"/>
                </mxCell>
                <mxCell id="21" value="" style="endArrow=none;html=1;" edge="1" parent="1" source="6" target="17">
                    <mxGeometry width="50" height="50" relative="1" as="geometry">
                        <mxPoint x="303" y="136" as="sourcePoint"/>
                        <mxPoint x="303" y="231" as="targetPoint"/>
                    </mxGeometry>
                </mxCell>
                <mxCell id="22" value="" style="endArrow=none;html=1;" edge="1" parent="1" source="2" target="6">
                    <mxGeometry width="50" height="50" relative="1" as="geometry">
                        <mxPoint x="48" y="132.2640144665461" as="sourcePoint"/>
                        <mxPoint x="257" y="232.03978300180825" as="targetPoint"/>
                    </mxGeometry>
                </mxCell>
            </root>
        </mxGraphModel>
    </diagram>
    <diagram id="9Pi9tCR2ZL3DqqYIaexB" name="Network_Topology">
        <mxGraphModel dx="1839" dy="999" grid="0" gridSize="10" guides="1" tooltips="1" connect="1" arrows="1" fold="1" page="0" pageScale="1" pageWidth="850" pageHeight="1100" math="0" shadow="0">
            <root>
                <mxCell id="0"/>
                <mxCell id="1" parent="0"/>
                <mxCell id="-nQOwFDNsLQj8ZXrqe_X-95" value="" style="rounded=0;whiteSpace=wrap;html=1;strokeColor=#CCFF99;fontSize=10;fillColor=#FFCC99;" vertex="1" parent="1">
                    <mxGeometry x="-509" y="83" width="104" height="259" as="geometry"/>
                </mxCell>
                <mxCell id="-nQOwFDNsLQj8ZXrqe_X-94" value="" style="rounded=0;whiteSpace=wrap;html=1;strokeColor=#82b366;fontSize=10;fillColor=#999900;" vertex="1" parent="1">
                    <mxGeometry x="310" y="191" width="342" height="210" as="geometry"/>
                </mxCell>
                <mxCell id="-nQOwFDNsLQj8ZXrqe_X-93" value="" style="rounded=0;whiteSpace=wrap;html=1;strokeColor=#82b366;fontSize=10;fillColor=#66FFFF;" vertex="1" parent="1">
                    <mxGeometry x="311" y="-41" width="322" height="184" as="geometry"/>
                </mxCell>
                <mxCell id="-nQOwFDNsLQj8ZXrqe_X-91" value="" style="rounded=0;whiteSpace=wrap;html=1;strokeColor=#82b366;fontSize=10;fillColor=#FFCCE6;" vertex="1" parent="1">
                    <mxGeometry x="128" y="10" width="182" height="310" as="geometry"/>
                </mxCell>
                <mxCell id="-nQOwFDNsLQj8ZXrqe_X-90" value="" style="rounded=0;whiteSpace=wrap;html=1;strokeColor=#82b366;fontSize=10;fillColor=#FFFFCC;" vertex="1" parent="1">
                    <mxGeometry x="-571" y="342" width="387" height="283" as="geometry"/>
                </mxCell>
                <mxCell id="-nQOwFDNsLQj8ZXrqe_X-88" value="" style="rounded=0;whiteSpace=wrap;html=1;strokeColor=#82b366;fontSize=10;fillColor=#99CCFF;" vertex="1" parent="1">
                    <mxGeometry x="-135" y="344" width="387" height="310" as="geometry"/>
                </mxCell>
                <mxCell id="-nQOwFDNsLQj8ZXrqe_X-84" value="" style="rounded=0;whiteSpace=wrap;html=1;strokeColor=#9673a6;fontSize=10;fillColor=#E6E6E6;" vertex="1" parent="1">
                    <mxGeometry x="-111" y="-201" width="104" height="115" as="geometry"/>
                </mxCell>
                <mxCell id="-nQOwFDNsLQj8ZXrqe_X-85" value="" style="rounded=0;whiteSpace=wrap;html=1;strokeColor=#9673a6;fontSize=10;fillColor=#E6E6E6;" vertex="1" parent="1">
                    <mxGeometry x="-256" y="-201" width="104" height="115" as="geometry"/>
                </mxCell>
                <mxCell id="-nQOwFDNsLQj8ZXrqe_X-83" value="" style="rounded=0;whiteSpace=wrap;html=1;strokeColor=#9673a6;fontSize=10;fillColor=#E6E6E6;" vertex="1" parent="1">
                    <mxGeometry x="30" y="-209" width="104" height="115" as="geometry"/>
                </mxCell>
                <mxCell id="-nQOwFDNsLQj8ZXrqe_X-82" value="" style="rounded=0;whiteSpace=wrap;html=1;strokeColor=#9673a6;fontSize=10;fillColor=#e1d5e7;" vertex="1" parent="1">
                    <mxGeometry x="-344" y="-86" width="473" height="115" as="geometry"/>
                </mxCell>
                <mxCell id="-nQOwFDNsLQj8ZXrqe_X-80" value="" style="rounded=0;whiteSpace=wrap;html=1;strokeColor=#82b366;fontSize=10;fillColor=#d5e8d4;" vertex="1" parent="1">
                    <mxGeometry x="-403" y="32" width="531" height="310" as="geometry"/>
                </mxCell>
                <mxCell id="-nQOwFDNsLQj8ZXrqe_X-1" value="Visiteurs" style="shape=mxgraph.cisco.routers.wireless_router;sketch=0;html=1;pointerEvents=1;dashed=0;fillColor=#036897;strokeColor=#ffffff;strokeWidth=2;verticalLabelPosition=top;verticalAlign=bottom;align=center;outlineConnect=0;labelPosition=center;" vertex="1" parent="1">
                    <mxGeometry x="-243" y="-127" width="78" height="77" as="geometry"/>
                </mxCell>
                <mxCell id="-nQOwFDNsLQj8ZXrqe_X-2" value="ConfÃ©renciers/Exposants" style="shape=mxgraph.cisco.routers.wireless_router;sketch=0;html=1;pointerEvents=1;dashed=0;fillColor=#036897;strokeColor=#ffffff;strokeWidth=2;verticalLabelPosition=top;verticalAlign=bottom;align=center;outlineConnect=0;labelPosition=center;" vertex="1" parent="1">
                    <mxGeometry x="-101" y="-127" width="78" height="77" as="geometry"/>
                </mxCell>
                <mxCell id="-nQOwFDNsLQj8ZXrqe_X-4" value="Salle de conf" style="shape=mxgraph.cisco.routers.router;sketch=0;html=1;pointerEvents=1;dashed=0;fillColor=#036897;strokeColor=#ffffff;strokeWidth=2;verticalLabelPosition=bottom;verticalAlign=top;align=center;outlineConnect=0;" vertex="1" parent="1">
                    <mxGeometry x="271" y="69" width="78" height="53" as="geometry"/>
                </mxCell>
                <mxCell id="-nQOwFDNsLQj8ZXrqe_X-6" value="EmployÃ©s" style="shape=mxgraph.cisco.routers.router;sketch=0;html=1;pointerEvents=1;dashed=0;fillColor=#036897;strokeColor=#ffffff;strokeWidth=2;verticalLabelPosition=bottom;verticalAlign=top;align=center;outlineConnect=0;" vertex="1" parent="1">
                    <mxGeometry x="268" y="271" width="78" height="49" as="geometry"/>
                </mxCell>
                <mxCell id="-nQOwFDNsLQj8ZXrqe_X-7" value="" style="shape=mxgraph.cisco.switches.workgroup_switch;sketch=0;html=1;pointerEvents=1;dashed=0;fillColor=#036897;strokeColor=#ffffff;strokeWidth=2;verticalLabelPosition=bottom;verticalAlign=top;align=center;outlineConnect=0;" vertex="1" parent="1">
                    <mxGeometry x="417" y="270" width="101" height="50" as="geometry"/>
                </mxCell>
                <mxCell id="-nQOwFDNsLQj8ZXrqe_X-8" value="" style="shape=mxgraph.cisco.switches.workgroup_switch;sketch=0;html=1;pointerEvents=1;dashed=0;fillColor=#036897;strokeColor=#ffffff;strokeWidth=2;verticalLabelPosition=bottom;verticalAlign=top;align=center;outlineConnect=0;" vertex="1" parent="1">
                    <mxGeometry x="417" y="66" width="101" height="50" as="geometry"/>
                </mxCell>
                <mxCell id="-nQOwFDNsLQj8ZXrqe_X-9" value="" style="endArrow=none;html=1;" edge="1" parent="1" source="-nQOwFDNsLQj8ZXrqe_X-4" target="-nQOwFDNsLQj8ZXrqe_X-8">
                    <mxGeometry width="50" height="50" relative="1" as="geometry">
                        <mxPoint x="336" y="133" as="sourcePoint"/>
                        <mxPoint x="386" y="83" as="targetPoint"/>
                    </mxGeometry>
                </mxCell>
                <mxCell id="-nQOwFDNsLQj8ZXrqe_X-10" value="" style="endArrow=none;html=1;" edge="1" parent="1" source="-nQOwFDNsLQj8ZXrqe_X-7" target="-nQOwFDNsLQj8ZXrqe_X-6">
                    <mxGeometry width="50" height="50" relative="1" as="geometry">
                        <mxPoint x="175" y="225" as="sourcePoint"/>
                        <mxPoint x="225" y="175" as="targetPoint"/>
                    </mxGeometry>
                </mxCell>
                <mxCell id="-nQOwFDNsLQj8ZXrqe_X-11" value="" style="shape=mxgraph.cisco.computers_and_peripherals.terminal;sketch=0;html=1;pointerEvents=1;dashed=0;fillColor=#036897;strokeColor=#ffffff;strokeWidth=2;verticalLabelPosition=bottom;verticalAlign=top;align=center;outlineConnect=0;" vertex="1" parent="1">
                    <mxGeometry x="602" y="83" width="61" height="54" as="geometry"/>
                </mxCell>
                <mxCell id="-nQOwFDNsLQj8ZXrqe_X-12" value="" style="shape=mxgraph.cisco.computers_and_peripherals.terminal;sketch=0;html=1;pointerEvents=1;dashed=0;fillColor=#036897;strokeColor=#ffffff;strokeWidth=2;verticalLabelPosition=bottom;verticalAlign=top;align=center;outlineConnect=0;" vertex="1" parent="1">
                    <mxGeometry x="607" y="-3" width="61" height="54" as="geometry"/>
                </mxCell>
                <mxCell id="-nQOwFDNsLQj8ZXrqe_X-15" value="" style="endArrow=none;html=1;" edge="1" parent="1" source="-nQOwFDNsLQj8ZXrqe_X-65" target="-nQOwFDNsLQj8ZXrqe_X-7">
                    <mxGeometry width="50" height="50" relative="1" as="geometry">
                        <mxPoint x="620.0999999999999" y="360" as="sourcePoint"/>
                        <mxPoint x="324" y="312.57532467532474" as="targetPoint"/>
                    </mxGeometry>
                </mxCell>
                <mxCell id="-nQOwFDNsLQj8ZXrqe_X-16" value="" style="endArrow=none;html=1;" edge="1" parent="1" source="-nQOwFDNsLQj8ZXrqe_X-68" target="-nQOwFDNsLQj8ZXrqe_X-7">
                    <mxGeometry width="50" height="50" relative="1" as="geometry">
                        <mxPoint x="621.1500000000001" y="251" as="sourcePoint"/>
                        <mxPoint x="334" y="322.57532467532474" as="targetPoint"/>
                    </mxGeometry>
                </mxCell>
                <mxCell id="-nQOwFDNsLQj8ZXrqe_X-17" value="Fichiers" style="shape=mxgraph.cisco.servers.standard_host;sketch=0;html=1;pointerEvents=1;dashed=0;fillColor=#036897;strokeColor=#ffffff;strokeWidth=2;verticalLabelPosition=bottom;verticalAlign=top;align=center;outlineConnect=0;" vertex="1" parent="1">
                    <mxGeometry x="106" y="606" width="43" height="62" as="geometry"/>
                </mxCell>
                <mxCell id="-nQOwFDNsLQj8ZXrqe_X-18" value="Archive Directory" style="shape=mxgraph.cisco.servers.standard_host;sketch=0;html=1;pointerEvents=1;dashed=0;fillColor=#036897;strokeColor=#ffffff;strokeWidth=2;verticalLabelPosition=bottom;verticalAlign=top;align=center;outlineConnect=0;" vertex="1" parent="1">
                    <mxGeometry x="-39" y="616" width="44" height="62" as="geometry"/>
                </mxCell>
                <mxCell id="-nQOwFDNsLQj8ZXrqe_X-19" value="Serveurs internes" style="shape=mxgraph.cisco.routers.router;sketch=0;html=1;pointerEvents=1;dashed=0;fillColor=#036897;strokeColor=#ffffff;strokeWidth=2;verticalLabelPosition=middle;verticalAlign=middle;align=right;outlineConnect=0;labelPosition=left;" vertex="1" parent="1">
                    <mxGeometry x="20" y="314" width="78" height="49" as="geometry"/>
                </mxCell>
                <mxCell id="-nQOwFDNsLQj8ZXrqe_X-20" value="" style="shape=mxgraph.cisco.switches.workgroup_switch;sketch=0;html=1;pointerEvents=1;dashed=0;fillColor=#036897;strokeColor=#ffffff;strokeWidth=2;verticalLabelPosition=bottom;verticalAlign=top;align=center;outlineConnect=0;" vertex="1" parent="1">
                    <mxGeometry x="15" y="401" width="88" height="39" as="geometry"/>
                </mxCell>
                <mxCell id="-nQOwFDNsLQj8ZXrqe_X-21" value="" style="endArrow=none;html=1;entryX=0.5;entryY=1;entryDx=0;entryDy=0;entryPerimeter=0;" edge="1" parent="1" source="-nQOwFDNsLQj8ZXrqe_X-20" target="-nQOwFDNsLQj8ZXrqe_X-19">
                    <mxGeometry width="50" height="50" relative="1" as="geometry">
                        <mxPoint x="427" y="303.4180722891565" as="sourcePoint"/>
                        <mxPoint x="309" y="299.72168674698787" as="targetPoint"/>
                    </mxGeometry>
                </mxCell>
                <mxCell id="-nQOwFDNsLQj8ZXrqe_X-22" value="" style="endArrow=none;html=1;" edge="1" parent="1" source="-nQOwFDNsLQj8ZXrqe_X-18" target="-nQOwFDNsLQj8ZXrqe_X-20">
                    <mxGeometry width="50" height="50" relative="1" as="geometry">
                        <mxPoint x="70.16766467065872" y="373" as="sourcePoint"/>
                        <mxPoint x="74" y="309" as="targetPoint"/>
                    </mxGeometry>
                </mxCell>
                <mxCell id="-nQOwFDNsLQj8ZXrqe_X-23" value="" style="endArrow=none;html=1;" edge="1" parent="1" source="-nQOwFDNsLQj8ZXrqe_X-17" target="-nQOwFDNsLQj8ZXrqe_X-20">
                    <mxGeometry width="50" height="50" relative="1" as="geometry">
                        <mxPoint x="25" y="451.5" as="sourcePoint"/>
                        <mxPoint x="54.45762711864404" y="412" as="targetPoint"/>
                    </mxGeometry>
                </mxCell>
                <mxCell id="-nQOwFDNsLQj8ZXrqe_X-24" value="" style="endArrow=none;html=1;" edge="1" parent="1" source="-nQOwFDNsLQj8ZXrqe_X-12" target="-nQOwFDNsLQj8ZXrqe_X-8">
                    <mxGeometry width="50" height="50" relative="1" as="geometry">
                        <mxPoint x="631.1500000000001" y="261" as="sourcePoint"/>
                        <mxPoint x="528" y="290.5385616661242" as="targetPoint"/>
                    </mxGeometry>
                </mxCell>
                <mxCell id="-nQOwFDNsLQj8ZXrqe_X-25" value="" style="endArrow=none;html=1;" edge="1" parent="1" source="-nQOwFDNsLQj8ZXrqe_X-11" target="-nQOwFDNsLQj8ZXrqe_X-8">
                    <mxGeometry width="50" height="50" relative="1" as="geometry">
                        <mxPoint x="631.1500000000001" y="261" as="sourcePoint"/>
                        <mxPoint x="528" y="290.5385616661242" as="targetPoint"/>
                    </mxGeometry>
                </mxCell>
                <mxCell id="-nQOwFDNsLQj8ZXrqe_X-26" value="DMZ interne" style="shape=mxgraph.cisco.routers.router;sketch=0;html=1;pointerEvents=1;dashed=0;fillColor=#036897;strokeColor=#ffffff;strokeWidth=2;verticalLabelPosition=middle;verticalAlign=middle;align=left;outlineConnect=0;labelPosition=right;" vertex="1" parent="1">
                    <mxGeometry x="-339" y="331.5" width="78" height="49" as="geometry"/>
                </mxCell>
                <mxCell id="-nQOwFDNsLQj8ZXrqe_X-27" value="Bordure&lt;br&gt;" style="shape=mxgraph.cisco.routers.router;sketch=0;html=1;pointerEvents=1;dashed=0;fillColor=#FF3333;strokeColor=#990099;strokeWidth=2;verticalLabelPosition=top;verticalAlign=bottom;align=center;outlineConnect=0;labelPosition=center;" vertex="1" parent="1">
                    <mxGeometry x="-461" y="127" width="78" height="49" as="geometry"/>
                </mxCell>
                <mxCell id="-nQOwFDNsLQj8ZXrqe_X-28" value="" style="shape=mxgraph.cisco.storage.cloud;sketch=0;html=1;pointerEvents=1;dashed=0;fillColor=#036897;strokeColor=#ffffff;strokeWidth=2;verticalLabelPosition=bottom;verticalAlign=top;align=center;outlineConnect=0;" vertex="1" parent="1">
                    <mxGeometry x="-661" y="125.5" width="105" height="57" as="geometry"/>
                </mxCell>
                <mxCell id="-nQOwFDNsLQj8ZXrqe_X-29" value="" style="shape=mxgraph.cisco.switches.workgroup_switch;sketch=0;html=1;pointerEvents=1;dashed=0;fillColor=#036897;strokeColor=#ffffff;strokeWidth=2;verticalLabelPosition=bottom;verticalAlign=top;align=center;outlineConnect=0;" vertex="1" parent="1">
                    <mxGeometry x="-413" y="430" width="81" height="40" as="geometry"/>
                </mxCell>
                <mxCell id="-nQOwFDNsLQj8ZXrqe_X-30" value="" style="endArrow=none;html=1;exitX=0.98;exitY=0.5;exitDx=0;exitDy=0;exitPerimeter=0;" edge="1" parent="1" source="-nQOwFDNsLQj8ZXrqe_X-28" target="-nQOwFDNsLQj8ZXrqe_X-27">
                    <mxGeometry width="50" height="50" relative="1" as="geometry">
                        <mxPoint x="70.16766467065872" y="373" as="sourcePoint"/>
                        <mxPoint x="74" y="309" as="targetPoint"/>
                    </mxGeometry>
                </mxCell>
                <mxCell id="-nQOwFDNsLQj8ZXrqe_X-31" value="Visio" style="shape=mxgraph.cisco.servers.standard_host;sketch=0;html=1;pointerEvents=1;dashed=0;fillColor=#036897;strokeColor=#ffffff;strokeWidth=2;verticalLabelPosition=bottom;verticalAlign=top;align=center;outlineConnect=0;" vertex="1" parent="1">
                    <mxGeometry x="-350" y="534" width="43" height="62" as="geometry"/>
                </mxCell>
                <mxCell id="-nQOwFDNsLQj8ZXrqe_X-32" value="VPN" style="shape=mxgraph.cisco.servers.standard_host;sketch=0;html=1;pointerEvents=1;dashed=0;fillColor=#036897;strokeColor=#ffffff;strokeWidth=2;verticalLabelPosition=bottom;verticalAlign=top;align=center;outlineConnect=0;" vertex="1" parent="1">
                    <mxGeometry x="-454" y="524" width="44" height="62" as="geometry"/>
                </mxCell>
                <mxCell id="-nQOwFDNsLQj8ZXrqe_X-33" value="" style="endArrow=none;html=1;" edge="1" parent="1" source="-nQOwFDNsLQj8ZXrqe_X-32" target="-nQOwFDNsLQj8ZXrqe_X-29">
                    <mxGeometry width="50" height="50" relative="1" as="geometry">
                        <mxPoint x="-164.83233532934128" y="450" as="sourcePoint"/>
                        <mxPoint x="-190.54237288135596" y="479" as="targetPoint"/>
                    </mxGeometry>
                </mxCell>
                <mxCell id="-nQOwFDNsLQj8ZXrqe_X-34" value="" style="endArrow=none;html=1;entryX=0.5;entryY=0.98;entryDx=0;entryDy=0;entryPerimeter=0;" edge="1" parent="1" source="-nQOwFDNsLQj8ZXrqe_X-31" target="-nQOwFDNsLQj8ZXrqe_X-29">
                    <mxGeometry width="50" height="50" relative="1" as="geometry">
                        <mxPoint x="-210" y="528.5" as="sourcePoint"/>
                        <mxPoint x="-165.02459016393436" y="479" as="targetPoint"/>
                    </mxGeometry>
                </mxCell>
                <mxCell id="-nQOwFDNsLQj8ZXrqe_X-38" value="" style="endArrow=none;html=1;entryX=0.5;entryY=1;entryDx=0;entryDy=0;entryPerimeter=0;" edge="1" parent="1" source="-nQOwFDNsLQj8ZXrqe_X-29" target="-nQOwFDNsLQj8ZXrqe_X-26">
                    <mxGeometry width="50" height="50" relative="1" as="geometry">
                        <mxPoint x="-210" y="528.5" as="sourcePoint"/>
                        <mxPoint x="-180.54237288135596" y="489" as="targetPoint"/>
                    </mxGeometry>
                </mxCell>
                <mxCell id="-nQOwFDNsLQj8ZXrqe_X-41" value="DMZ externe" style="shape=mxgraph.cisco.routers.router;sketch=0;html=1;pointerEvents=1;dashed=0;fillColor=#FF3333;strokeColor=#CC00CC;strokeWidth=2;verticalLabelPosition=middle;verticalAlign=middle;align=right;outlineConnect=0;labelPosition=left;" vertex="1" parent="1">
                    <mxGeometry x="-491" y="324" width="78" height="49" as="geometry"/>
                </mxCell>
                <mxCell id="-nQOwFDNsLQj8ZXrqe_X-42" value="" style="endArrow=none;html=1;" edge="1" parent="1" source="-nQOwFDNsLQj8ZXrqe_X-41" target="-nQOwFDNsLQj8ZXrqe_X-29">
                    <mxGeometry width="50" height="50" relative="1" as="geometry">
                        <mxPoint x="-203.93283582089543" y="484" as="sourcePoint"/>
                        <mxPoint x="-165" y="437" as="targetPoint"/>
                    </mxGeometry>
                </mxCell>
                <mxCell id="-nQOwFDNsLQj8ZXrqe_X-43" value="" style="endArrow=none;html=1;" edge="1" parent="1" source="-nQOwFDNsLQj8ZXrqe_X-41" target="-nQOwFDNsLQj8ZXrqe_X-27">
                    <mxGeometry width="50" height="50" relative="1" as="geometry">
                        <mxPoint x="-193.93283582089543" y="494" as="sourcePoint"/>
                        <mxPoint x="-155" y="447" as="targetPoint"/>
                    </mxGeometry>
                </mxCell>
                <mxCell id="-nQOwFDNsLQj8ZXrqe_X-44" value="Coeur de rÃ©seau" style="shape=mxgraph.cisco.switches.workgroup_switch;sketch=0;html=1;pointerEvents=1;dashed=0;fillColor=#009900;strokeColor=#82b366;strokeWidth=2;verticalLabelPosition=bottom;verticalAlign=top;align=center;outlineConnect=0;labelPosition=center;fontSize=10;fontStyle=1" vertex="1" parent="1">
                    <mxGeometry x="-98" y="129" width="81" height="50" as="geometry"/>
                </mxCell>
                <mxCell id="-nQOwFDNsLQj8ZXrqe_X-49" value="" style="endArrow=none;html=1;strokeColor=#00CC00;strokeWidth=3;" edge="1" parent="1" source="-nQOwFDNsLQj8ZXrqe_X-44" target="-nQOwFDNsLQj8ZXrqe_X-27">
                    <mxGeometry width="50" height="50" relative="1" as="geometry">
                        <mxPoint x="-160.5569333333333" y="-21" as="sourcePoint"/>
                        <mxPoint x="-110.03999999999996" y="90.5" as="targetPoint"/>
                    </mxGeometry>
                </mxCell>
                <mxCell id="-nQOwFDNsLQj8ZXrqe_X-50" value="" style="endArrow=none;html=1;strokeColor=#00CC00;strokeWidth=3;" edge="1" parent="1" source="-nQOwFDNsLQj8ZXrqe_X-44" target="-nQOwFDNsLQj8ZXrqe_X-26">
                    <mxGeometry width="50" height="50" relative="1" as="geometry">
                        <mxPoint x="-123" y="116.35212569316081" as="sourcePoint"/>
                        <mxPoint x="-314" y="174.60536044362289" as="targetPoint"/>
                    </mxGeometry>
                </mxCell>
                <mxCell id="-nQOwFDNsLQj8ZXrqe_X-51" value="" style="endArrow=none;html=1;strokeColor=#00CC00;strokeWidth=3;" edge="1" parent="1" source="-nQOwFDNsLQj8ZXrqe_X-44" target="-nQOwFDNsLQj8ZXrqe_X-19">
                    <mxGeometry width="50" height="50" relative="1" as="geometry">
                        <mxPoint x="-113" y="126.35212569316081" as="sourcePoint"/>
                        <mxPoint x="-304" y="184.60536044362289" as="targetPoint"/>
                    </mxGeometry>
                </mxCell>
                <mxCell id="-nQOwFDNsLQj8ZXrqe_X-52" value="" style="endArrow=none;html=1;strokeColor=#00CC00;strokeWidth=3;" edge="1" parent="1" source="-nQOwFDNsLQj8ZXrqe_X-60" target="-nQOwFDNsLQj8ZXrqe_X-44">
                    <mxGeometry width="50" height="50" relative="1" as="geometry">
                        <mxPoint x="284" y="111" as="sourcePoint"/>
                        <mxPoint x="-294" y="194.60536044362289" as="targetPoint"/>
                    </mxGeometry>
                </mxCell>
                <mxCell id="-nQOwFDNsLQj8ZXrqe_X-54" value="EmployÃ©s" style="shape=mxgraph.cisco.routers.wireless_router;sketch=0;html=1;pointerEvents=1;dashed=0;fillColor=#036897;strokeColor=#ffffff;strokeWidth=2;verticalLabelPosition=top;verticalAlign=bottom;align=center;outlineConnect=0;labelPosition=center;" vertex="1" parent="1">
                    <mxGeometry x="28" y="-127" width="78" height="77" as="geometry"/>
                </mxCell>
                <mxCell id="-nQOwFDNsLQj8ZXrqe_X-56" value="" style="endArrow=none;html=1;strokeColor=#00CC00;strokeWidth=3;exitX=0.5;exitY=0;exitDx=0;exitDy=0;exitPerimeter=0;" edge="1" parent="1" source="-nQOwFDNsLQj8ZXrqe_X-44" target="-nQOwFDNsLQj8ZXrqe_X-55">
                    <mxGeometry width="50" height="50" relative="1" as="geometry">
                        <mxPoint x="-57.5" y="129" as="sourcePoint"/>
                        <mxPoint x="-36.038271604938245" y="-35" as="targetPoint"/>
                    </mxGeometry>
                </mxCell>
                <mxCell id="-nQOwFDNsLQj8ZXrqe_X-55" value="WLAN&lt;br&gt;" style="shape=mxgraph.cisco.routers.router;sketch=0;html=1;pointerEvents=1;dashed=0;fillColor=#00CC00;strokeColor=#ffffff;strokeWidth=2;verticalLabelPosition=middle;verticalAlign=middle;align=right;outlineConnect=0;labelPosition=left;" vertex="1" parent="1">
                    <mxGeometry x="-91" y="30" width="78" height="49" as="geometry"/>
                </mxCell>
                <mxCell id="-nQOwFDNsLQj8ZXrqe_X-57" value="" style="endArrow=none;html=1;" edge="1" parent="1" source="-nQOwFDNsLQj8ZXrqe_X-98" target="-nQOwFDNsLQj8ZXrqe_X-54">
                    <mxGeometry width="50" height="50" relative="1" as="geometry">
                        <mxPoint x="359" y="104.38571428571424" as="sourcePoint"/>
                        <mxPoint x="427" y="102.44285714285718" as="targetPoint"/>
                    </mxGeometry>
                </mxCell>
                <mxCell id="-nQOwFDNsLQj8ZXrqe_X-58" value="" style="endArrow=none;html=1;startArrow=none;" edge="1" parent="1" source="-nQOwFDNsLQj8ZXrqe_X-98" target="-nQOwFDNsLQj8ZXrqe_X-2">
                    <mxGeometry width="50" height="50" relative="1" as="geometry">
                        <mxPoint x="-11.177419354838776" y="40" as="sourcePoint"/>
                        <mxPoint x="75" y="-28.5" as="targetPoint"/>
                    </mxGeometry>
                </mxCell>
                <mxCell id="-nQOwFDNsLQj8ZXrqe_X-59" value="" style="endArrow=none;html=1;exitX=0;exitY=0.5;exitDx=0;exitDy=0;exitPerimeter=0;" edge="1" parent="1" source="-nQOwFDNsLQj8ZXrqe_X-98" target="-nQOwFDNsLQj8ZXrqe_X-1">
                    <mxGeometry width="50" height="50" relative="1" as="geometry">
                        <mxPoint x="-37.98046875" y="40" as="sourcePoint"/>
                        <mxPoint x="-27.31640625" y="-25" as="targetPoint"/>
                    </mxGeometry>
                </mxCell>
                <mxCell id="-nQOwFDNsLQj8ZXrqe_X-60" value="Stations" style="shape=mxgraph.cisco.routers.router;sketch=0;html=1;pointerEvents=1;dashed=0;fillColor=#00CC00;strokeColor=#ffffff;strokeWidth=2;verticalLabelPosition=bottom;verticalAlign=top;align=center;outlineConnect=0;labelPosition=center;" vertex="1" parent="1">
                    <mxGeometry x="86" y="137" width="78" height="49" as="geometry"/>
                </mxCell>
                <mxCell id="-nQOwFDNsLQj8ZXrqe_X-61" value="" style="endArrow=none;html=1;" edge="1" parent="1" source="-nQOwFDNsLQj8ZXrqe_X-96" target="-nQOwFDNsLQj8ZXrqe_X-4">
                    <mxGeometry width="50" height="50" relative="1" as="geometry">
                        <mxPoint x="359" y="104.38571428571424" as="sourcePoint"/>
                        <mxPoint x="427" y="102.44285714285718" as="targetPoint"/>
                    </mxGeometry>
                </mxCell>
                <mxCell id="-nQOwFDNsLQj8ZXrqe_X-62" value="" style="endArrow=none;html=1;" edge="1" parent="1" source="-nQOwFDNsLQj8ZXrqe_X-96" target="-nQOwFDNsLQj8ZXrqe_X-6">
                    <mxGeometry width="50" height="50" relative="1" as="geometry">
                        <mxPoint x="369" y="114.38571428571424" as="sourcePoint"/>
                        <mxPoint x="437" y="112.44285714285718" as="targetPoint"/>
                    </mxGeometry>
                </mxCell>
                <mxCell id="-nQOwFDNsLQj8ZXrqe_X-65" value="" style="shape=mxgraph.cisco.computers_and_peripherals.sun_workstation;sketch=0;html=1;pointerEvents=1;dashed=0;fillColor=#036897;strokeColor=#ffffff;strokeWidth=2;verticalLabelPosition=bottom;verticalAlign=top;align=center;outlineConnect=0;fontSize=10;" vertex="1" parent="1">
                    <mxGeometry x="613" y="327" width="71" height="58" as="geometry"/>
                </mxCell>
                <mxCell id="-nQOwFDNsLQj8ZXrqe_X-68" value="" style="shape=mxgraph.cisco.computers_and_peripherals.sun_workstation;sketch=0;html=1;pointerEvents=1;dashed=0;fillColor=#036897;strokeColor=#ffffff;strokeWidth=2;verticalLabelPosition=bottom;verticalAlign=top;align=center;outlineConnect=0;fontSize=10;" vertex="1" parent="1">
                    <mxGeometry x="607" y="222" width="71" height="58" as="geometry"/>
                </mxCell>
                <mxCell id="-nQOwFDNsLQj8ZXrqe_X-73" value="" style="shape=mxgraph.cisco.servers.standard_host;sketch=0;html=1;pointerEvents=1;dashed=0;fillColor=#036897;strokeColor=#ffffff;strokeWidth=2;verticalLabelPosition=bottom;verticalAlign=top;align=center;outlineConnect=0;" vertex="1" parent="1">
                    <mxGeometry x="233" y="444" width="43" height="62" as="geometry"/>
                </mxCell>
                <mxCell id="-nQOwFDNsLQj8ZXrqe_X-74" value="" style="shape=mxgraph.cisco.servers.standard_host;sketch=0;html=1;pointerEvents=1;dashed=0;fillColor=#036897;strokeColor=#ffffff;strokeWidth=2;verticalLabelPosition=bottom;verticalAlign=top;align=center;outlineConnect=0;" vertex="1" parent="1">
                    <mxGeometry x="228" y="580" width="43" height="62" as="geometry"/>
                </mxCell>
                <mxCell id="-nQOwFDNsLQj8ZXrqe_X-75" value="" style="shape=mxgraph.cisco.servers.standard_host;sketch=0;html=1;pointerEvents=1;dashed=0;fillColor=#036897;strokeColor=#ffffff;strokeWidth=2;verticalLabelPosition=bottom;verticalAlign=top;align=center;outlineConnect=0;" vertex="1" parent="1">
                    <mxGeometry x="-154" y="601" width="43" height="62" as="geometry"/>
                </mxCell>
                <mxCell id="-nQOwFDNsLQj8ZXrqe_X-76" value="" style="endArrow=none;html=1;" edge="1" parent="1" source="-nQOwFDNsLQj8ZXrqe_X-75" target="-nQOwFDNsLQj8ZXrqe_X-20">
                    <mxGeometry width="50" height="50" relative="1" as="geometry">
                        <mxPoint x="24.666666666666742" y="501" as="sourcePoint"/>
                        <mxPoint x="61.03225806451633" y="412" as="targetPoint"/>
                    </mxGeometry>
                </mxCell>
                <mxCell id="-nQOwFDNsLQj8ZXrqe_X-77" value="" style="endArrow=none;html=1;" edge="1" parent="1" source="-nQOwFDNsLQj8ZXrqe_X-74" target="-nQOwFDNsLQj8ZXrqe_X-20">
                    <mxGeometry width="50" height="50" relative="1" as="geometry">
                        <mxPoint x="34.66666666666674" y="511" as="sourcePoint"/>
                        <mxPoint x="71.03225806451633" y="422" as="targetPoint"/>
                    </mxGeometry>
                </mxCell>
                <mxCell id="-nQOwFDNsLQj8ZXrqe_X-78" value="" style="endArrow=none;html=1;" edge="1" parent="1" source="-nQOwFDNsLQj8ZXrqe_X-73" target="-nQOwFDNsLQj8ZXrqe_X-20">
                    <mxGeometry width="50" height="50" relative="1" as="geometry">
                        <mxPoint x="44.66666666666674" y="521" as="sourcePoint"/>
                        <mxPoint x="81.03225806451633" y="432" as="targetPoint"/>
                    </mxGeometry>
                </mxCell>
                <mxCell id="-nQOwFDNsLQj8ZXrqe_X-86" value="&lt;b style=&quot;font-size: 16px;&quot;&gt;&lt;font color=&quot;#009900&quot; style=&quot;font-size: 16px;&quot;&gt;Coeur de rÃ©seau&lt;/font&gt;&lt;/b&gt;" style="text;html=1;strokeColor=none;fillColor=none;align=center;verticalAlign=middle;whiteSpace=wrap;rounded=0;fontSize=16;" vertex="1" parent="1">
                    <mxGeometry x="-405" y="38.5" width="183" height="32" as="geometry"/>
                </mxCell>
                <mxCell id="-nQOwFDNsLQj8ZXrqe_X-87" value="&lt;b style=&quot;font-size: 16px;&quot;&gt;&lt;font style=&quot;font-size: 16px;&quot;&gt;Wireless&lt;/font&gt;&lt;/b&gt;" style="text;html=1;strokeColor=none;fillColor=none;align=center;verticalAlign=middle;whiteSpace=wrap;rounded=0;fontSize=16;fontColor=#CC00CC;" vertex="1" parent="1">
                    <mxGeometry x="-27" y="-3" width="183" height="32" as="geometry"/>
                </mxCell>
                <mxCell id="-nQOwFDNsLQj8ZXrqe_X-96" value="" style="shape=mxgraph.cisco.switches.workgroup_switch;sketch=0;html=1;pointerEvents=1;dashed=0;fillColor=#036897;strokeColor=#ffffff;strokeWidth=2;verticalLabelPosition=bottom;verticalAlign=top;align=center;outlineConnect=0;" vertex="1" parent="1">
                    <mxGeometry x="182" y="150" width="74" height="36" as="geometry"/>
                </mxCell>
                <mxCell id="-nQOwFDNsLQj8ZXrqe_X-97" value="" style="endArrow=none;html=1;" edge="1" parent="1" source="-nQOwFDNsLQj8ZXrqe_X-60" target="-nQOwFDNsLQj8ZXrqe_X-96">
                    <mxGeometry width="50" height="50" relative="1" as="geometry">
                        <mxPoint x="241.42352941176478" y="196" as="sourcePoint"/>
                        <mxPoint x="300.0901960784313" y="281" as="targetPoint"/>
                    </mxGeometry>
                </mxCell>
                <mxCell id="-nQOwFDNsLQj8ZXrqe_X-99" value="" style="endArrow=none;html=1;" edge="1" parent="1" source="-nQOwFDNsLQj8ZXrqe_X-55" target="-nQOwFDNsLQj8ZXrqe_X-98">
                    <mxGeometry width="50" height="50" relative="1" as="geometry">
                        <mxPoint x="-53.713286713286834" y="30" as="sourcePoint"/>
                        <mxPoint x="-59.30769230769238" y="-50" as="targetPoint"/>
                    </mxGeometry>
                </mxCell>
                <mxCell id="-nQOwFDNsLQj8ZXrqe_X-98" value="" style="shape=mxgraph.cisco.switches.workgroup_switch;sketch=0;html=1;pointerEvents=1;dashed=0;fillColor=#036897;strokeColor=#ffffff;strokeWidth=2;verticalLabelPosition=bottom;verticalAlign=top;align=center;outlineConnect=0;" vertex="1" parent="1">
                    <mxGeometry x="-94.5" y="-20" width="74" height="36" as="geometry"/>
                </mxCell>
            </root>
        </mxGraphModel>
    </diagram>
</mxfile>